<mxfile host="www.draw.io" modified="2020-01-02T10:05:52.211Z" agent="Mozilla/5.0 (Macintosh; Intel Mac OS X 10_13_6) AppleWebKit/537.36 (KHTML, like Gecko) Chrome/79.0.3945.88 Safari/537.36" etag="zcynj9YXPxq8h746DwEz" version="12.4.8" type="github">
  <diagram id="5A_8QvBDkD8iJzHdoNyj" name="第 1 页">
    <mxGraphModel dx="1125" dy="591" grid="1" gridSize="10" guides="1" tooltips="1" connect="1" arrows="1" fold="1" page="1" pageScale="1" pageWidth="1169" pageHeight="827" math="0" shadow="0">
      <root>
        <mxCell id="0"/>
        <mxCell id="1" parent="0"/>
        <mxCell id="wRO6PRRE6GgIBAKboTHp-2" value="eureka2&lt;br&gt;192.168.0.1:8081" style="rounded=0;whiteSpace=wrap;html=1;" vertex="1" parent="1">
          <mxGeometry x="580" y="40" width="210" height="110" as="geometry"/>
        </mxCell>
      </root>
    </mxGraphModel>
  </diagram>
</mxfile>
